<svg width="34" height="25" viewBox="0 0 34 25" fill="none" xmlns="http://www.w3.org/2000/svg">
<path d="M33.5 9.065C33.5742 6.91798 33.1047 4.78702 32.135 2.87C31.4771 2.0834 30.5641 1.55256 29.555 1.37C25.3813 0.991287 21.1903 0.836065 17 0.904999C12.825 0.832936 8.6491 0.983149 4.49004 1.355C3.66777 1.50457 2.90682 1.89026 2.30004 2.465C0.95004 3.71 0.80004 5.84 0.65004 7.64C0.432408 10.8763 0.432408 14.1237 0.65004 17.36C0.693436 18.3731 0.844281 19.3787 1.10004 20.36C1.2809 21.1176 1.64682 21.8185 2.16504 22.4C2.77594 23.0052 3.55462 23.4128 4.40004 23.57C7.63391 23.9692 10.8924 24.1346 14.15 24.065C19.4 24.14 24.005 24.065 29.45 23.645C30.3162 23.4975 31.1168 23.0893 31.745 22.475C32.165 22.0549 32.4787 21.5406 32.66 20.975C33.1965 19.3289 33.46 17.6062 33.44 15.875C33.5 15.035 33.5 9.965 33.5 9.065ZM13.61 16.775V7.49L22.49 12.155C20 13.535 16.715 15.095 13.61 16.775Z" fill="#A3ABB2"/>
</svg>
